<?xml version="1.0" encoding="utf-8"?>
<!-- Generator: Adobe Illustrator 19.0.0, SVG Export Plug-In . SVG Version: 6.00 Build 0)  -->
<svg version="1.1" id="Layer_1" xmlns="http://www.w3.org/2000/svg" xmlns:xlink="http://www.w3.org/1999/xlink" x="0px" y="0px"
	 viewBox="128 356.7 18 18" style="enable-background:new 128 356.7 18 18;" xml:space="preserve">
<style type="text/css">
	.st0{fill:none;}
</style>
<path class="st0" d="M145.1,374.7h-16.3c-0.5,0-0.9-0.4-0.9-0.9v-16.3c0-0.5,0.4-0.9,0.9-0.9h16.3c0.5,0,0.9,0.4,0.9,0.9v16.3
	C146,374.3,145.6,374.7,145.1,374.7z"/>
<g>
	<g id="more">
		<path d="M144.3,360.2h-11.1c-0.5,0-0.9,0.3-1.2,0.7l-4,6l4,6c0.3,0.4,0.7,0.7,1.3,0.7h11c0.8,0,1.5-0.7,1.5-1.5v-10.4
			C145.8,360.9,145.1,360.2,144.3,360.2z M134.7,368c-0.6,0-1.1-0.5-1.1-1.1s0.5-1.1,1.1-1.1c0.6,0,1.1,0.5,1.1,1.1
			S135.3,368,134.7,368z M138.4,368c-0.6,0-1.1-0.5-1.1-1.1s0.5-1.1,1.1-1.1c0.6,0,1.1,0.5,1.1,1.1S139,368,138.4,368z M142.1,368
			c-0.6,0-1.1-0.5-1.1-1.1s0.5-1.1,1.1-1.1c0.6,0,1.1,0.5,1.1,1.1S142.7,368,142.1,368z"/>
	</g>
</g>
</svg>
